<svg xmlns="http://www.w3.org/2000/svg" viewBox="-95 607 600 600" width="30" height="30">
  <path fill="none" d="M152.602 930.976c-3.127.787-5.607 1.565-7.545 2.259 2.301 4.919 5.041 9.514 8.14 13.737-.394-4.677-.597-9.508-.597-14.474l.002-1.522zM244.922 928.277c-8.248-1.233-18.935-4.23-32.67-4.977l.68 84.749c14.099-6.138 25.067-28.433 28.236-45.497 2.416-13.003 3.789-21.988 3.789-34.071.002-.963-.018.756-.035-.204zM198.867 923.356c-13.632.825-24.416 3.759-32.845 5.009-.016.93-.036-.817-.036.12 0 12.479 3.772 32.213 4.461 35.054 4.297 17.682 14.209 40.298 29.104 45.181l-.684-85.364zM258.345 931.161c0 4.843-.198 9.565-.573 14.154 2.661-3.83 5.032-7.947 7.058-12.315-1.662-.618-3.797-1.313-6.488-2.028l.003.189zM204.886 815.095c-37.591 0-68.176 35.834-68.176 79.881 0 8.65 1.195 16.974 3.374 24.782 13.201-3.444 39.066-9.364 58.667-10.611l-.313-39.028c-14.511-2.245-25.314-10.779-25.314-20.972 0-11.904 14.728-21.553 32.896-21.553s32.896 9.65 32.896 21.553c0 10.604-11.692 19.413-27.089 21.21l.311 38.702c22.347 1.004 45.383 6.8 57.612 10.473 2.14-7.742 3.31-15.991 3.31-24.558.001-44.045-30.582-79.879-68.174-79.879z"/>
  <path fill="#0080FF" d="M204.886 801.709c-44.972 0-81.561 41.839-81.561 93.267 0 31.007 13.313 58.513 33.734 75.48 8.113 32.106 26.503 52.619 48.412 52.619 21.869 0 40.23-21.165 48.367-53.551 19.788-17.034 32.608-44.109 32.608-74.548 0-51.428-36.588-93.267-81.56-93.267zm-59.828 131.526c1.938-.695 4.417-1.472 7.545-2.259l-.003 1.523c0 4.967.203 9.797.597 14.474-3.1-4.223-5.84-8.819-8.139-13.738zm25.389 30.302c-.691-2.84-4.461-22.574-4.461-35.054 0-.937.02.811.036-.12 8.429-1.25 19.213-4.184 32.845-5.009l.685 85.362c-14.896-4.881-24.808-27.497-29.105-45.179zm70.722-.982c-3.171 17.062-14.138 39.358-28.236 45.497l-.68-84.749c13.735.746 24.422 3.744 32.67 4.977.017.96.038-.76.038.206-.002 12.082-1.376 21.067-3.792 34.069zm16.603-17.241c.375-4.589.573-9.31.573-14.154 0-.064-.003-.126-.003-.19 2.69.715 4.825 1.411 6.488 2.028-2.027 4.369-4.399 8.487-7.058 12.316zm-45.634-36.254l-.311-38.702c15.397-1.798 27.089-10.607 27.089-21.21 0-11.904-14.728-21.553-32.896-21.553s-32.896 9.65-32.896 21.553c0 10.193 10.803 18.727 25.316 20.971l.313 39.028c-19.6 1.246-45.465 7.165-58.667 10.611-2.18-7.808-3.374-16.132-3.374-24.782 0-44.047 30.583-79.881 68.176-79.881 37.591 0 68.174 35.834 68.174 79.881 0 8.567-1.17 16.816-3.31 24.558-12.232-3.674-35.267-9.47-57.614-10.474z"/>
  <g>
    <circle fill="#0080FF" cx="111.997" cy="812.478" r="8.7"/>
    <circle fill="#0080FF" cx="300.061" cy="812.478" r="8.7"/>
    <path fill="#0080FF" d="M82.104 942.79h-.893c-1.964 0-3.57-1.606-3.57-3.57v-43.726c0-1.964 1.606-3.57 3.57-3.57h.893c1.964 0 3.57 1.606 3.57 3.57v43.726c0 1.964-1.607 3.57-3.57 3.57zM323.486 991.108h-.893c-1.964 0-3.57-1.606-3.57-3.57v-43.726c0-1.964 1.606-3.57 3.57-3.57h.893c1.964 0 3.57 1.606 3.57 3.57v43.726c0 1.964-1.607 3.57-3.57 3.57zM285.553 1061.474h-.893c-1.964 0-3.57-1.606-3.57-3.57v-43.726c0-1.964 1.606-3.57 3.57-3.57h.893c1.964 0 3.57 1.606 3.57 3.57v43.726c0 1.964-1.606 3.57-3.57 3.57zM148.18 1082.902h-.893c-1.964 0-3.57-1.606-3.57-3.57v-43.726c0-1.964 1.606-3.57 3.57-3.57h.893c1.964 0 3.57 1.606 3.57 3.57v43.726c0 1.964-1.606 3.57-3.57 3.57zM77.642 1057.47h-.893c-1.964 0-3.57-1.606-3.57-3.57v-43.726c0-1.964 1.606-3.57 3.57-3.57h.893c1.964 0 3.57 1.606 3.57 3.57v43.726c-.001 1.964-1.607 3.57-3.57 3.57zM208.123 1133.767h-.893c-1.964 0-3.57-1.606-3.57-3.57v-43.726c0-1.964 1.606-3.57 3.57-3.57h.893c1.964 0 3.57 1.606 3.57 3.57v43.726c-.002 1.964-1.608 3.57-3.57 3.57zM268.16 1145.802h-.893c-1.964 0-3.57-1.606-3.57-3.57v-43.726c0-1.964 1.606-3.57 3.57-3.57h.893c1.964 0 3.57 1.606 3.57 3.57v43.726c0 1.963-1.606 3.57-3.57 3.57zM105.752 1137.77h-.893c-1.964 0-3.57-1.606-3.57-3.57v-43.726c0-1.964 1.606-3.57 3.57-3.57h.893c1.964 0 3.57 1.606 3.57 3.57v43.726c-.002 1.964-1.608 3.57-3.57 3.57z"/>
  </g>
  <g>
    <path fill="none" d="M79.105 772.782c-1.519-.957-3.312-1.519-5.236-1.519-5.441 0-9.869 4.427-9.869 9.869 0 2.127.683 4.093 1.831 5.706 4.18-4.912 8.607-9.609 13.274-14.056zM346.091 781.131c0-5.441-4.428-9.869-9.869-9.869-1.637 0-3.178.407-4.538 1.115 4.584 4.34 8.945 8.912 13.065 13.699.848-1.456 1.342-3.142 1.342-4.945zM401.579 1068.987c1.061-1.286 2.108-2.585 3.144-3.891h-4.559c.444 1.341.909 2.651 1.415 3.891zM205.612 748.871c-35.735 0-68.708 12.027-95.106 32.235v.027l-.1.049c-37.4 28.677-61.563 73.795-61.563 124.457v202.614c43.166 33.569 97.364 53.591 156.155 53.591 45.566 0 88.371-12.033 125.423-33.071-.151-.395-.244-.818-.244-1.264v-43.726c0-1.964 1.606-3.57 3.57-3.57h.893c1.964 0 3.57 1.606 3.57 3.57v40.385c8.387-5.164 16.46-10.79 24.169-16.86V905.639c.001-86.443-70.325-156.768-156.767-156.768zM397.08 1051.71h17.567c4.777-6.9 9.221-14.048 13.312-21.417h-31.671c-.448 7.697-.14 14.893.792 21.417zM430.4 948.363c-.092.09-.182.189-.274.28h26.29c.727-4.402 1.345-8.84 1.843-13.313-.683-.074-1.375-.12-2.079-.12-7.873 0-16.995 4.599-25.78 13.153z"/>
    <path fill="none" d="M204.999 652.156C64.478 652.156-49.845 766.479-49.845 907c0 68.818 27.431 131.341 71.918 177.241V905.639c0-35.55 10.17-68.763 27.738-96.906-7.702-6.722-12.582-16.599-12.582-27.601 0-20.203 16.436-36.64 36.64-36.64 10.264 0 19.549 4.247 26.207 11.07 29.873-21.07 66.283-33.462 105.537-33.462 38.846 0 74.903 12.141 104.599 32.812 6.64-6.483 15.847-10.419 26.01-10.419 20.204 0 36.64 16.436 36.64 36.64 0 10.652-4.572 20.253-11.853 26.954 17.816 28.279 28.141 61.731 28.141 97.552v54.104c6.375-11.813 14.01-22.221 22.572-30.559 15.254-14.854 32.041-21.953 48.102-20.6.003-.529.02-1.055.02-1.583-.001-140.523-114.323-254.845-254.845-254.845zM401.31 1000.898c-1.533 5.472-2.689 10.818-3.53 16.01h37.098c3.14-6.544 6.009-13.241 8.592-20.078h-40.954c-.421 1.347-.825 2.703-1.206 4.068zM407.454 983.445h40.649c2.21-7.014 4.127-14.158 5.73-21.417h-34.767c-4.375 6.4-8.296 13.643-11.612 21.417z"/>
    <path fill="#0080FF" d="M413.595 698.403C357.877 642.685 283.797 612 204.999 612S52.122 642.685-3.596 698.403-90 828.202-90 906.999s30.685 152.878 86.404 208.596c55.718 55.718 129.799 86.404 208.596 86.404s152.878-30.686 208.596-86.404S500 985.796 500 906.999s-30.687-152.877-86.405-208.596zm-51.215 408.905c-7.709 6.07-15.783 11.696-24.169 16.86v-40.385c0-1.964-1.606-3.57-3.57-3.57h-.893c-1.964 0-3.57 1.606-3.57 3.57v43.726c0 .446.092.869.244 1.264-37.052 21.038-79.856 33.071-125.423 33.071-58.791 0-112.989-20.022-156.155-53.591V905.639c0-50.662 24.163-95.78 61.563-124.457l.1-.049v-.027c26.397-20.207 59.371-32.235 95.106-32.235 86.441 0 156.767 70.325 156.767 156.768v201.669zM64 781.131c0-5.441 4.428-9.869 9.869-9.869 1.925 0 3.717.562 5.236 1.519-4.667 4.447-9.094 9.143-13.274 14.055-1.148-1.612-1.831-3.578-1.831-5.705zm267.683-8.753c1.36-.708 2.902-1.115 4.538-1.115 5.441 0 9.869 4.427 9.869 9.869 0 1.803-.494 3.49-1.341 4.945-4.119-4.788-8.481-9.359-13.066-13.699zm69.896 296.609c-.506-1.241-.97-2.55-1.413-3.891h4.559c-1.038 1.306-2.085 2.606-3.146 3.891zm13.068-17.277H397.08c-.932-6.524-1.238-13.72-.792-21.417h31.671c-4.092 7.369-8.535 14.517-13.312 21.417zm20.231-34.801H397.78c.841-5.192 1.997-10.538 3.53-16.01.383-1.365.786-2.721 1.206-4.068h40.954c-2.584 6.837-5.452 13.533-8.592 20.078zm13.224-33.464h-40.649c3.316-7.774 7.237-15.017 11.612-21.417h34.767c-1.603 7.259-3.52 14.403-5.73 21.417zm8.314-34.802h-26.29c.092-.091.182-.19.274-.28 8.783-8.555 17.907-13.154 25.78-13.154.704 0 1.396.046 2.079.12-.498 4.474-1.116 8.912-1.843 13.314zm-44.694-19.459c-8.561 8.338-16.196 18.746-22.572 30.559v-54.104c0-35.822-10.325-69.273-28.141-97.552 7.282-6.701 11.853-16.302 11.853-26.954 0-20.203-16.436-36.64-36.64-36.64-10.165 0-19.37 3.937-26.01 10.419-29.697-20.672-65.755-32.812-104.599-32.812-39.254 0-75.663 12.392-105.537 33.462-6.658-6.823-15.943-11.07-26.207-11.07-20.204 0-36.64 16.436-36.64 36.64 0 11.001 4.88 20.878 12.582 27.601-17.568 28.143-27.738 61.356-27.738 96.906v178.602c-44.488-45.9-71.918-108.423-71.918-177.241 0-140.521 114.323-254.844 254.844-254.844S459.843 766.479 459.843 907c0 .53-.016 1.055-.02 1.583-16.06-1.353-32.847 5.747-48.101 20.601z"/>
  </g>
</svg>
